<?xml version="1.0" encoding="UTF-8" standalone="no"?>
<!-- Generator: Adobe Illustrator 12.0.1, SVG Export Plug-In . SVG Version: 6.00 Build 51448)  -->
<svg
   xmlns:dc="http://purl.org/dc/elements/1.1/"
   xmlns:cc="http://web.resource.org/cc/"
   xmlns:rdf="http://www.w3.org/1999/02/22-rdf-syntax-ns#"
   xmlns:svg="http://www.w3.org/2000/svg"
   xmlns="http://www.w3.org/2000/svg"
   xmlns:sodipodi="http://sodipodi.sourceforge.net/DTD/sodipodi-0.dtd"
   xmlns:inkscape="http://www.inkscape.org/namespaces/inkscape"
   version="1.0"
   id="Layer_1"
   width="200"
   height="200"
   viewBox="0 0 83.29834 83.298828"
   style="overflow:visible;enable-background:new 0 0 83.2983398 83.2988281;"
   xml:space="preserve"
   sodipodi:version="0.32"
   inkscape:version="0.45.1"
   sodipodi:docname="CBC Logo 1992-Present.svg"
   inkscape:output_extension="org.inkscape.output.svg.inkscape"
   sodipodi:docbase="C:\Documents and Settings\David Nelson\Archives\Svg"><metadata
   id="metadata2262"><rdf:RDF><cc:Work
       rdf:about=""><dc:format>image/svg+xml</dc:format><dc:type
         rdf:resource="http://purl.org/dc/dcmitype/StillImage" /></cc:Work></rdf:RDF></metadata><defs
   id="defs2260" /><sodipodi:namedview
   inkscape:window-height="569"
   inkscape:window-width="744"
   inkscape:pageshadow="2"
   inkscape:pageopacity="0.0"
   guidetolerance="10.0"
   gridtolerance="10.0"
   objecttolerance="10.0"
   borderopacity="1.0"
   bordercolor="#666666"
   pagecolor="#ffffff"
   id="base"
   width="200px"
   height="200px"
   inkscape:zoom="1.885"
   inkscape:cx="100"
   inkscape:cy="100"
   inkscape:window-x="66"
   inkscape:window-y="89"
   inkscape:current-layer="Layer_1" />














<path
   style="fill:#ff0000;overflow:visible"
   d="M 41.647569,55.601135 C 49.353153,55.601135 55.600748,49.353577 55.600748,41.65033 C 55.600748,33.942505 49.353153,27.695862 41.647569,27.695862 C 33.938783,27.695862 27.688441,33.942505 27.688441,41.65033 C 27.688441,49.353577 33.938783,55.601135 41.647569,55.601135 z "
   id="path2231" /><path
   d=""
   style="fill:#ff0000;overflow:visible"
   id="path2233" /><path
   style="fill:#ff0000;overflow:visible"
   d="M 25.53465,55.601135 C 17.823576,55.601135 11.57415,49.353577 11.57415,41.65033 C 11.57415,33.942505 17.823576,27.690369 25.534193,27.690369 L 25.53465,55.601135 z "
   id="path2235" /><path
   style="fill:#ff0000;overflow:visible"
   d="M 57.757743,70.996643 L 57.761402,57.755371 L 71.009159,57.76178 C 71.009159,65.080505 65.074675,70.996643 57.757743,70.996643 z "
   id="path2237" /><path
   style="fill:#ff0000;overflow:visible"
   d="M 25.534193,25.542541 L 12.269954,25.544372 C 12.269954,18.223815 18.210847,12.286622 25.534193,12.286622"
   id="path2239"
   sodipodi:nodetypes="ccc" /><path
   style="fill:#ff0000;overflow:visible"
   d="M 25.53465,71.003967 L 25.53465,57.755371 L 12.273617,57.76178 C 12.273617,65.080505 18.207642,71.003967 25.53465,71.003967 z "
   id="path2241" /><path
   style="fill:#ff0000;overflow:visible"
   d="M 73.880269,53.640075 L 73.872946,29.658752 C 77.958054,32.092225 80.695496,36.549927 80.695496,41.65033 C 80.695496,46.74707 77.958054,51.202026 73.880269,53.640075 z "
   id="path2243" /><path
   style="fill:#ff0000;overflow:visible"
   d="M 29.65409,9.416443 L 53.636012,9.4201053 C 51.202525,5.3350221 46.749374,2.6030886 41.6494,2.6030886 C 36.548509,2.6030886 32.088491,5.3350221 29.65409,9.416443 z "
   id="path2245" /><path
   style="fill:#ff0000;overflow:visible"
   d="M 53.460228,73.878723 L 29.474187,73.875976 C 31.909047,77.958312 36.365402,80.695739 41.466294,80.695739 C 46.566268,80.695739 51.023081,77.961975 53.460228,73.878723 z "
   id="path2247" /><path
   style="fill:#ff0000;overflow:visible"
   d="M 55.597084,57.76178 C 55.597084,65.47052 49.353153,71.716247 41.647569,71.716247 C 33.938783,71.716247 27.68661,65.47052 27.68661,57.761779 L 55.597084,57.76178 z "
   id="path2249"
   sodipodi:nodetypes="cscc" /><path
   style="fill:#ff0000;overflow:visible"
   d="M 57.761402,55.601135 C 65.466527,55.601135 71.719616,49.353577 71.719616,41.65033 C 71.719616,33.942506 65.466527,27.690369 57.761402,27.690369 L 57.761402,55.601135 z "
   id="path2251"
   sodipodi:nodetypes="cscc" /><path
   style="fill:#ff0000;overflow:visible"
   d="M 55.597084,25.559022 C 55.597084,17.853942 49.353153,11.606385 41.647569,11.606385 C 33.938783,11.606385 27.68661,17.853942 27.68661,25.559022 L 55.597084,25.559022 z "
   id="path2253" /><path
   style="fill:#ff0000;overflow:visible"
   d="M 9.4144081,53.640075 L 9.4203588,29.658752 C 5.3338786,32.092225 2.6028445,36.549927 2.6028445,41.65033 C 2.6028445,46.74707 5.3338786,51.202026 9.4144081,53.640075 z "
   id="path2255" /><path
   style="fill:#ff0000;overflow:visible"
   d="M 57.761402,25.542541 L 57.757743,12.298523 C 65.074675,12.298523 71.009159,18.229309 71.009159,25.551697"
   id="path2257"
   sodipodi:nodetypes="ccc" /></svg>