<?xml version="1.0" encoding="UTF-8" standalone="no"?>
<!-- Created with Inkscape (http://www.inkscape.org/) -->
<svg
   xmlns:dc="http://purl.org/dc/elements/1.1/"
   xmlns:cc="http://web.resource.org/cc/"
   xmlns:rdf="http://www.w3.org/1999/02/22-rdf-syntax-ns#"
   xmlns:svg="http://www.w3.org/2000/svg"
   xmlns="http://www.w3.org/2000/svg"
   xmlns:sodipodi="http://sodipodi.sourceforge.net/DTD/sodipodi-0.dtd"
   xmlns:inkscape="http://www.inkscape.org/namespaces/inkscape"
   id="svg2229"
   sodipodi:version="0.32"
   inkscape:version="0.45.1"
   width="618"
   height="590"
   version="1.0"
   sodipodi:docbase="C:\Documents and Settings\David Nelson\Archives\Svg"
   sodipodi:docname="CBC_Logo_1966-1974.svg"
   inkscape:output_extension="org.inkscape.output.svg.inkscape">
  <metadata
     id="metadata2234">
    <rdf:RDF>
      <cc:Work
         rdf:about="">
        <dc:format>image/svg+xml</dc:format>
        <dc:type
           rdf:resource="http://purl.org/dc/dcmitype/StillImage" />
      </cc:Work>
    </rdf:RDF>
  </metadata>
  <defs
     id="defs2232" />
  <sodipodi:namedview
     inkscape:window-height="569"
     inkscape:window-width="744"
     inkscape:pageshadow="2"
     inkscape:pageopacity="0.0"
     guidetolerance="10.0"
     gridtolerance="10.0"
     objecttolerance="50"
     borderopacity="1.0"
     bordercolor="#666666"
     pagecolor="#ffffff"
     id="base"
     inkscape:zoom="0.6910299"
     inkscape:cx="309"
     inkscape:cy="295"
     inkscape:window-x="242"
     inkscape:window-y="133"
     inkscape:current-layer="svg2229"
     inkscape:object-points="false"
     inkscape:object-paths="false"
     inkscape:object-nodes="false"
     showguides="true"
     inkscape:guide-bbox="true" />
  <path
     style="opacity:0.98999999;fill:#00adcc;fill-opacity:1;fill-rule:nonzero;stroke:none;stroke-width:0.5;stroke-linecap:square;stroke-linejoin:round;stroke-miterlimit:3;stroke-dasharray:none;stroke-opacity:1"
     d="M 299.57028,295 C 295.49199,295 291.41686,295.13868 287.32028,295.4375 C 283.2237,295.73632 279.11325,296.19554 275.00778,296.78125 C 270.90231,297.36696 266.80023,298.10807 262.69528,298.96875 C 258.59033,299.82943 254.47781,300.81377 250.38278,301.9375 C 246.28775,303.06123 242.20849,304.31265 238.13278,305.6875 C 234.05707,307.06235 229.99227,308.5422 225.94528,310.15625 C 221.89829,311.7703 217.86039,313.50243 213.85153,315.34375 C 209.84267,317.18507 205.84412,319.16207 201.88278,321.21875 C 197.92144,323.27543 194.00594,325.4274 190.10153,327.6875 C 186.19712,329.9476 182.3146,332.29839 178.47653,334.75 C 174.63846,337.20161 170.83262,339.74381 167.07028,342.375 C 163.30794,345.00619 159.59123,347.73241 155.91403,350.53125 C 152.23683,353.33009 148.59044,356.20168 145.00778,359.15625 C 141.42512,362.11082 137.89275,365.15162 134.41403,368.25 C 130.93531,371.34838 127.52941,374.51974 124.16403,377.75 C 120.79865,380.98026 117.46916,384.27478 114.22653,387.625 C 110.9839,390.97522 107.80577,394.38549 104.69528,397.84375 C 101.58479,401.30201 98.57047,404.78938 95.601531,408.34375 C 92.632601,411.89812 89.732011,415.51769 86.914031,419.15625 C 84.096051,422.79481 81.352911,426.47668 78.695281,430.1875 C 76.03765,433.89832 73.464401,437.63509 70.976531,441.40625 C 68.488661,445.17741 66.066491,448.96167 63.757781,452.78125 C 61.44907,456.60083 59.25293,460.45643 57.13278,464.3125 C 55.012631,468.16857 52.99247,472.02561 51.07028,475.90625 C 49.14809,479.78689 47.31635,483.66921 45.60153,487.5625 C 43.886711,491.45579 42.28709,495.35599 40.78903,499.25 C 39.29098,503.14401 37.90466,507.05469 36.63278,510.9375 C 35.360901,514.82031 34.20034,518.67157 33.16403,522.53125 C 32.12772,526.39093 31.20537,530.23787 30.41403,534.0625 C 29.622691,537.88713 28.950991,541.6911 28.41403,545.46875 C 27.877071,549.2464 27.46846,552.99999 27.19528,556.71875 C 26.9221,560.43751 26.78903,564.13332 26.78903,567.78125 C 67.491951,567.78125 106.08468,558.78886 140.78903,542.78125 C 140.8694,541.18765 140.84563,539.51696 140.94528,537.9375 C 141.45251,529.89799 142.23114,522.04989 143.22653,514.375 C 144.22192,506.70011 145.44955,499.18805 146.91403,491.875 C 148.37851,484.56195 150.06204,477.42273 151.97653,470.46875 C 153.89102,463.51477 156.03735,456.75394 158.38278,450.15625 C 160.72821,443.55856 163.28172,437.11916 166.03903,430.875 C 168.79634,424.63084 171.76392,418.58091 174.91403,412.6875 C 178.06414,406.79409 181.39019,401.07668 184.91403,395.53125 C 188.43787,389.98582 192.16053,384.60648 196.03903,379.40625 C 199.91753,374.20602 203.94995,369.17029 208.16403,364.3125 C 212.37811,359.45471 216.75843,354.76813 221.28903,350.25 C 225.81963,345.73187 230.49224,341.39999 235.32028,337.21875 C 240.14832,333.03751 245.12012,329.00338 250.22653,325.15625 C 255.33294,321.30912 260.57957,317.64078 265.94528,314.125 C 271.31099,310.60922 276.80809,307.24971 282.41403,304.0625 C 288.01997,300.87529 293.74318,297.86141 299.57028,295 z "
     id="path3264" />
  <path
     style="opacity:0.98999999;fill:#0028ac;fill-opacity:1;fill-rule:nonzero;stroke:none;stroke-width:0.5;stroke-linecap:square;stroke-linejoin:round;stroke-miterlimit:3;stroke-dasharray:none;stroke-opacity:1"
     d="M 299.57028,295 C 293.74318,297.86141 288.01997,300.87529 282.41403,304.0625 C 276.80809,307.24971 271.31099,310.60922 265.94528,314.125 C 260.57957,317.64078 255.33294,321.30912 250.22653,325.15625 C 245.12012,329.00338 240.14832,333.03751 235.32028,337.21875 C 230.49224,341.39999 225.81963,345.73187 221.28903,350.25 C 216.75843,354.76813 212.37811,359.45471 208.16403,364.3125 C 203.94995,369.17029 199.91753,374.20602 196.03903,379.40625 C 192.16053,384.60648 188.43787,389.98582 184.91403,395.53125 C 181.39019,401.07668 178.06414,406.79409 174.91403,412.6875 C 171.76392,418.58091 168.79634,424.63084 166.03903,430.875 C 163.28172,437.11916 160.72821,443.55856 158.38278,450.15625 C 156.03735,456.75394 153.89102,463.51477 151.97653,470.46875 C 150.06204,477.42273 148.37851,484.56195 146.91403,491.875 C 145.44955,499.18805 144.22192,506.70011 143.22653,514.375 C 142.23114,522.04989 141.45251,529.89799 140.94528,537.9375 C 140.84563,539.51696 140.8694,541.18765 140.78903,542.78125 C 234.4639,499.57309 299.57028,404.86637 299.57028,295 z "
     id="path3262" />
  <path
     style="opacity:0.98999999;fill:#00a86f;fill-opacity:1;fill-rule:nonzero;stroke:none;stroke-width:0.5;stroke-linecap:square;stroke-linejoin:round;stroke-miterlimit:3;stroke-dasharray:none;stroke-opacity:1"
     d="M 163.19528,295 C 87.910761,295 26.78903,356.09048 26.78903,431.375 L 26.78903,567.78125 C 26.78903,564.13332 26.9221,560.43751 27.19528,556.71875 C 27.46846,552.99999 27.877071,549.2464 28.41403,545.46875 C 28.950991,541.6911 29.622691,537.88713 30.41403,534.0625 C 31.20537,530.23787 32.12772,526.39093 33.16403,522.53125 C 34.20034,518.67157 35.360901,514.82031 36.63278,510.9375 C 37.90466,507.05469 39.29098,503.14401 40.78903,499.25 C 42.28709,495.35599 43.886711,491.45579 45.60153,487.5625 C 47.31635,483.66921 49.14809,479.78689 51.07028,475.90625 C 52.99247,472.02561 55.012631,468.16857 57.13278,464.3125 C 59.25293,460.45643 61.44907,456.60083 63.757781,452.78125 C 66.066491,448.96167 68.488661,445.17741 70.976531,441.40625 C 73.464401,437.63509 76.03765,433.89832 78.695281,430.1875 C 81.352911,426.47668 84.096051,422.79481 86.914031,419.15625 C 89.732011,415.51769 92.632601,411.89812 95.601531,408.34375 C 98.57047,404.78938 101.58479,401.30201 104.69528,397.84375 C 107.80577,394.38549 110.9839,390.97522 114.22653,387.625 C 117.46916,384.27478 120.79865,380.98026 124.16403,377.75 C 127.52941,374.51974 130.93531,371.34838 134.41403,368.25 C 137.89275,365.15162 141.42512,362.11082 145.00778,359.15625 C 148.59044,356.20168 152.23683,353.33009 155.91403,350.53125 C 159.59123,347.73241 163.30794,345.00619 167.07028,342.375 C 170.83262,339.74381 174.63846,337.20161 178.47653,334.75 C 182.3146,332.29839 186.19712,329.9476 190.10153,327.6875 C 194.00594,325.4274 197.92144,323.27543 201.88278,321.21875 C 205.84412,319.16207 209.84267,317.18507 213.85153,315.34375 C 217.86039,313.50243 221.89829,311.7703 225.94528,310.15625 C 229.99227,308.5422 234.05707,307.06235 238.13278,305.6875 C 242.20849,304.31265 246.28775,303.06123 250.38278,301.9375 C 254.47781,300.81377 258.59033,299.82943 262.69528,298.96875 C 266.80023,298.10807 270.90231,297.36696 275.00778,296.78125 C 279.11325,296.19554 283.2237,295.73632 287.32028,295.4375 C 291.41686,295.13868 295.49199,295 299.57028,295 L 163.19528,295 z "
     id="path3248" />
  <path
     style="opacity:0.98999999;fill:#ff1515;fill-opacity:1;fill-rule:nonzero;stroke:none;stroke-width:0.5;stroke-linecap:square;stroke-linejoin:round;stroke-miterlimit:3;stroke-dasharray:none;stroke-opacity:1"
     d="M 299.57028,295 C 298.16709,290.23791 296.4738,285.34716 294.47653,280.34375 C 292.47926,275.34034 290.18066,270.23019 287.60153,265.0625 C 285.0224,259.89481 282.15653,254.66121 279.00778,249.40625 C 275.85903,244.15129 272.43268,238.85894 268.72653,233.59375 C 265.02038,228.32856 261.04034,223.0734 256.78903,217.875 C 252.53772,212.6766 248.01077,207.55458 243.22653,202.5 C 238.44229,197.44542 233.40647,192.45873 228.10153,187.625 C 222.79659,182.79127 217.22744,178.09836 211.41403,173.5625 C 205.60062,169.02664 199.53618,164.66096 193.22653,160.5 C 186.91688,156.33904 180.36393,152.39653 173.57028,148.6875 C 170.17345,146.83298 166.71081,145.03959 163.19528,143.3125 C 159.67975,141.58541 156.10924,139.90254 152.47653,138.3125 C 148.84382,136.72246 145.13114,135.22461 141.38278,133.78125 C 137.63442,132.33789 133.83902,130.97455 129.97653,129.6875 C 126.11404,128.40045 122.20161,127.18361 118.22653,126.0625 C 114.25145,124.94139 110.21892,123.9143 106.13278,122.96875 C 102.04664,122.0232 97.890961,121.1666 93.695281,120.40625 C 89.499601,119.6459 85.248961,118.97178 80.945281,118.40625 C 76.641601,117.84072 72.292941,117.36108 67.882781,117 C 63.47262,116.63892 59.02289,116.397 54.50778,116.25 C 49.99267,116.103 45.40756,116.04829 40.78903,116.125 C 36.1705,116.20171 31.509451,116.40871 26.78903,116.71875 L 26.78903,158.625 C 26.78903,174.82852 29.75065,190.29786 34.94528,204.71875 C 37.8903,204.02206 40.796031,203.20455 43.78903,202.625 C 49.540501,201.51131 55.35601,200.62013 61.25778,199.9375 C 67.159551,199.25487 73.14734,198.7848 79.164031,198.53125 C 85.180721,198.2777 91.224071,198.2327 97.320281,198.40625 C 103.4165,198.5798 109.55493,198.96382 115.69528,199.5625 C 121.83563,200.16118 127.98368,200.97817 134.13278,202 C 140.28188,203.02183 146.41657,204.27574 152.53903,205.71875 C 158.66149,207.16176 164.75985,208.79404 170.82028,210.65625 C 176.88071,212.51846 182.91977,214.59556 188.88278,216.875 C 194.84579,219.15444 200.74008,221.64906 206.57028,224.34375 C 212.40048,227.03844 218.15828,229.92328 223.82028,233.03125 C 229.48228,236.13922 235.04937,239.44947 240.50778,242.96875 C 245.96619,246.48803 251.31959,250.22765 256.53903,254.15625 C 261.75847,258.08485 266.84396,262.22654 271.78903,266.5625 C 276.7341,270.89846 281.52872,275.41491 286.16403,280.15625 C 290.79934,284.89759 295.28011,289.85526 299.57028,295 z "
     id="path3259" />
  <path
     style="opacity:0.98999999;fill:#fcf300;fill-opacity:1;fill-rule:nonzero;stroke:none;stroke-width:0.5;stroke-linecap:square;stroke-linejoin:round;stroke-miterlimit:3;stroke-dasharray:none;stroke-opacity:1"
     d="M 299.57028,295 C 295.28011,289.85526 290.79934,284.89759 286.16403,280.15625 C 281.52872,275.41491 276.7341,270.89846 271.78903,266.5625 C 266.84396,262.22654 261.75847,258.08485 256.53903,254.15625 C 251.31959,250.22765 245.96619,246.48803 240.50778,242.96875 C 235.04937,239.44947 229.48228,236.13922 223.82028,233.03125 C 218.15828,229.92328 212.40048,227.03844 206.57028,224.34375 C 200.74008,221.64906 194.84579,219.15444 188.88278,216.875 C 182.91977,214.59556 176.88071,212.51846 170.82028,210.65625 C 164.75985,208.79404 158.66149,207.16176 152.53903,205.71875 C 146.41657,204.27574 140.28188,203.02183 134.13278,202 C 127.98368,200.97817 121.83563,200.16118 115.69528,199.5625 C 109.55493,198.96382 103.4165,198.5798 97.320281,198.40625 C 91.224071,198.2327 85.180721,198.2777 79.164031,198.53125 C 73.14734,198.7848 67.159551,199.25487 61.25778,199.9375 C 55.35601,200.62013 49.540501,201.51131 43.78903,202.625 C 40.796031,203.20455 37.8903,204.02206 34.94528,204.71875 C 53.885841,257.29996 104.11428,295 163.19528,295 L 299.57028,295 z "
     id="path3257" />
  <path
     style="opacity:0.98999999;fill:#c20029;fill-opacity:1;fill-rule:nonzero;stroke:none;stroke-width:0.5;stroke-linecap:square;stroke-linejoin:round;stroke-miterlimit:3;stroke-dasharray:none;stroke-opacity:1"
     d="M 26.78903,22.21875 L 26.78903,116.71875 C 31.509451,116.40871 36.1705,116.20171 40.78903,116.125 C 45.40756,116.04829 49.99267,116.103 54.50778,116.25 C 59.02289,116.397 63.47262,116.63892 67.882781,117 C 72.292941,117.36108 76.641601,117.84072 80.945281,118.40625 C 85.248961,118.97178 89.499601,119.6459 93.695281,120.40625 C 97.890961,121.1666 102.04664,122.0232 106.13278,122.96875 C 110.21892,123.9143 114.25145,124.94139 118.22653,126.0625 C 122.20161,127.18361 126.11404,128.40045 129.97653,129.6875 C 133.83902,130.97455 137.63442,132.33789 141.38278,133.78125 C 145.13114,135.22461 148.84382,136.72246 152.47653,138.3125 C 156.10924,139.90254 159.67975,141.58541 163.19528,143.3125 C 166.71081,145.03959 170.17345,146.83298 173.57028,148.6875 C 180.36393,152.39653 186.91688,156.33904 193.22653,160.5 C 199.53618,164.66096 205.60062,169.02664 211.41403,173.5625 C 217.22744,178.09836 222.79659,182.79127 228.10153,187.625 C 233.40647,192.45873 238.44229,197.44542 243.22653,202.5 C 248.01077,207.55458 252.53772,212.6766 256.78903,217.875 C 261.04034,223.0734 265.02038,228.32856 268.72653,233.59375 C 272.43268,238.85894 275.85903,244.15129 279.00778,249.40625 C 282.15653,254.66121 285.0224,259.89481 287.60153,265.0625 C 290.18066,270.23019 292.47926,275.34034 294.47653,280.34375 C 296.4738,285.34716 298.16709,290.23791 299.57028,295 C 299.57028,144.43071 177.35834,22.21875 26.78903,22.21875 z "
     id="path3252" />
  <path
     sodipodi:type="arc"
     style="opacity:0.98999999;fill:#000000;fill-opacity:1;fill-rule:nonzero;stroke:none;stroke-width:0.5;stroke-linecap:square;stroke-linejoin:round;stroke-miterlimit:3;stroke-dasharray:none;stroke-opacity:1"
     id="path3266"
     sodipodi:cx="-164.56586"
     sodipodi:cy="153.39671"
     sodipodi:rx="31.905624"
     sodipodi:ry="31.905624"
     d="M -132.66023 153.39671 A 31.905624 31.905624 0 1 1  -196.47148,153.39671 A 31.905624 31.905624 0 1 1  -132.66023 153.39671 z"
     transform="matrix(0.7818962,0,0,0.7818962,437.67335,62.71944)" />
  <path
     id="path3270"
     d="M 318.42972,295 C 322.50801,295 326.58314,295.13868 330.67972,295.4375 C 334.7763,295.73632 338.88675,296.19554 342.99222,296.78125 C 347.09769,297.36696 351.19977,298.10807 355.30472,298.96875 C 359.40967,299.82943 363.52219,300.81377 367.61722,301.9375 C 371.71225,303.06123 375.79151,304.31265 379.86722,305.6875 C 383.94293,307.06235 388.00773,308.5422 392.05472,310.15625 C 396.10171,311.7703 400.13961,313.50243 404.14847,315.34375 C 408.15733,317.18507 412.15588,319.16207 416.11722,321.21875 C 420.07856,323.27543 423.99406,325.4274 427.89847,327.6875 C 431.80288,329.9476 435.6854,332.29839 439.52347,334.75 C 443.36154,337.20161 447.16738,339.74381 450.92972,342.375 C 454.69206,345.00619 458.40877,347.73241 462.08597,350.53125 C 465.76317,353.33009 469.40956,356.20168 472.99222,359.15625 C 476.57488,362.11082 480.10725,365.15162 483.58597,368.25 C 487.06469,371.34838 490.47059,374.51974 493.83597,377.75 C 497.20135,380.98026 500.53084,384.27478 503.77347,387.625 C 507.0161,390.97522 510.19423,394.38549 513.30472,397.84375 C 516.41521,401.30201 519.42953,404.78938 522.39847,408.34375 C 525.3674,411.89812 528.26799,415.51769 531.08597,419.15625 C 533.90395,422.79481 536.64709,426.47668 539.30472,430.1875 C 541.96235,433.89832 544.5356,437.63509 547.02347,441.40625 C 549.51134,445.17741 551.93351,448.96167 554.24222,452.78125 C 556.55093,456.60083 558.74707,460.45643 560.86722,464.3125 C 562.98737,468.16857 565.00753,472.02561 566.92972,475.90625 C 568.85191,479.78689 570.68365,483.66921 572.39847,487.5625 C 574.11329,491.45579 575.71291,495.35599 577.21097,499.25 C 578.70902,503.14401 580.09534,507.05469 581.36722,510.9375 C 582.6391,514.82031 583.79966,518.67157 584.83597,522.53125 C 585.87228,526.39093 586.79463,530.23787 587.58597,534.0625 C 588.37731,537.88713 589.04901,541.6911 589.58597,545.46875 C 590.12293,549.2464 590.53154,552.99999 590.80472,556.71875 C 591.0779,560.43751 591.21097,564.13332 591.21097,567.78125 C 550.50805,567.78125 511.91532,558.78886 477.21097,542.78125 C 477.1306,541.18765 477.15437,539.51696 477.05472,537.9375 C 476.54749,529.89799 475.76886,522.04989 474.77347,514.375 C 473.77808,506.70011 472.55045,499.18805 471.08597,491.875 C 469.62149,484.56195 467.93796,477.42273 466.02347,470.46875 C 464.10898,463.51477 461.96265,456.75394 459.61722,450.15625 C 457.27179,443.55856 454.71828,437.11916 451.96097,430.875 C 449.20366,424.63084 446.23608,418.58091 443.08597,412.6875 C 439.93586,406.79409 436.60981,401.07668 433.08597,395.53125 C 429.56213,389.98582 425.83947,384.60648 421.96097,379.40625 C 418.08247,374.20602 414.05005,369.17029 409.83597,364.3125 C 405.62189,359.45471 401.24157,354.76813 396.71097,350.25 C 392.18037,345.73187 387.50776,341.39999 382.67972,337.21875 C 377.85168,333.03751 372.87988,329.00338 367.77347,325.15625 C 362.66706,321.30912 357.42043,317.64078 352.05472,314.125 C 346.68901,310.60922 341.19191,307.24971 335.58597,304.0625 C 329.98003,300.87529 324.25682,297.86141 318.42972,295 z "
     style="opacity:0.98999999;fill:#00adcc;fill-opacity:1;fill-rule:nonzero;stroke:none;stroke-width:0.5;stroke-linecap:square;stroke-linejoin:round;stroke-miterlimit:3;stroke-dasharray:none;stroke-opacity:1" />
  <path
     id="path3272"
     d="M 318.42972,295 C 324.25682,297.86141 329.98003,300.87529 335.58597,304.0625 C 341.19191,307.24971 346.68901,310.60922 352.05472,314.125 C 357.42043,317.64078 362.66706,321.30912 367.77347,325.15625 C 372.87988,329.00338 377.85168,333.03751 382.67972,337.21875 C 387.50776,341.39999 392.18037,345.73187 396.71097,350.25 C 401.24157,354.76813 405.62189,359.45471 409.83597,364.3125 C 414.05005,369.17029 418.08247,374.20602 421.96097,379.40625 C 425.83947,384.60648 429.56213,389.98582 433.08597,395.53125 C 436.60981,401.07668 439.93586,406.79409 443.08597,412.6875 C 446.23608,418.58091 449.20366,424.63084 451.96097,430.875 C 454.71828,437.11916 457.27179,443.55856 459.61722,450.15625 C 461.96265,456.75394 464.10898,463.51477 466.02347,470.46875 C 467.93796,477.42273 469.62149,484.56195 471.08597,491.875 C 472.55045,499.18805 473.77808,506.70011 474.77347,514.375 C 475.76886,522.04989 476.54749,529.89799 477.05472,537.9375 C 477.15437,539.51696 477.1306,541.18765 477.21097,542.78125 C 383.5361,499.57309 318.42972,404.86637 318.42972,295 z "
     style="opacity:0.98999999;fill:#0028ac;fill-opacity:1;fill-rule:nonzero;stroke:none;stroke-width:0.5;stroke-linecap:square;stroke-linejoin:round;stroke-miterlimit:3;stroke-dasharray:none;stroke-opacity:1" />
  <path
     id="path3274"
     d="M 454.80472,295 C 530.08924,295 591.21097,356.09048 591.21097,431.375 L 591.21097,567.78125 C 591.21097,564.13332 591.0779,560.43751 590.80472,556.71875 C 590.53154,552.99999 590.12293,549.2464 589.58597,545.46875 C 589.04901,541.6911 588.37731,537.88713 587.58597,534.0625 C 586.79463,530.23787 585.87228,526.39093 584.83597,522.53125 C 583.79966,518.67157 582.6391,514.82031 581.36722,510.9375 C 580.09534,507.05469 578.70902,503.14401 577.21097,499.25 C 575.71291,495.35599 574.11329,491.45579 572.39847,487.5625 C 570.68365,483.66921 568.85191,479.78689 566.92972,475.90625 C 565.00753,472.02561 562.98737,468.16857 560.86722,464.3125 C 558.74707,460.45643 556.55093,456.60083 554.24222,452.78125 C 551.93351,448.96167 549.51134,445.17741 547.02347,441.40625 C 544.5356,437.63509 541.96235,433.89832 539.30472,430.1875 C 536.64709,426.47668 533.90395,422.79481 531.08597,419.15625 C 528.26799,415.51769 525.3674,411.89812 522.39847,408.34375 C 519.42953,404.78938 516.41521,401.30201 513.30472,397.84375 C 510.19423,394.38549 507.0161,390.97522 503.77347,387.625 C 500.53084,384.27478 497.20135,380.98026 493.83597,377.75 C 490.47059,374.51974 487.06469,371.34838 483.58597,368.25 C 480.10725,365.15162 476.57488,362.11082 472.99222,359.15625 C 469.40956,356.20168 465.76317,353.33009 462.08597,350.53125 C 458.40877,347.73241 454.69206,345.00619 450.92972,342.375 C 447.16738,339.74381 443.36154,337.20161 439.52347,334.75 C 435.6854,332.29839 431.80288,329.9476 427.89847,327.6875 C 423.99406,325.4274 420.07856,323.27543 416.11722,321.21875 C 412.15588,319.16207 408.15733,317.18507 404.14847,315.34375 C 400.13961,313.50243 396.10171,311.7703 392.05472,310.15625 C 388.00773,308.5422 383.94293,307.06235 379.86722,305.6875 C 375.79151,304.31265 371.71225,303.06123 367.61722,301.9375 C 363.52219,300.81377 359.40967,299.82943 355.30472,298.96875 C 351.19977,298.10807 347.09769,297.36696 342.99222,296.78125 C 338.88675,296.19554 334.7763,295.73632 330.67972,295.4375 C 326.58314,295.13868 322.50801,295 318.42972,295 L 454.80472,295 z "
     style="opacity:0.98999999;fill:#00a86f;fill-opacity:1;fill-rule:nonzero;stroke:none;stroke-width:0.5;stroke-linecap:square;stroke-linejoin:round;stroke-miterlimit:3;stroke-dasharray:none;stroke-opacity:1" />
  <path
     id="path3276"
     d="M 318.42972,295 C 319.83291,290.23791 321.5262,285.34716 323.52347,280.34375 C 325.52074,275.34034 327.81934,270.23019 330.39847,265.0625 C 332.9776,259.89481 335.84347,254.66121 338.99222,249.40625 C 342.14097,244.15129 345.56732,238.85894 349.27347,233.59375 C 352.97962,228.32856 356.95966,223.0734 361.21097,217.875 C 365.46228,212.6766 369.98923,207.55458 374.77347,202.5 C 379.55771,197.44542 384.59353,192.45873 389.89847,187.625 C 395.20341,182.79127 400.77256,178.09836 406.58597,173.5625 C 412.39938,169.02664 418.46382,164.66096 424.77347,160.5 C 431.08312,156.33904 437.63607,152.39653 444.42972,148.6875 C 447.82655,146.83298 451.28919,145.03959 454.80472,143.3125 C 458.32025,141.58541 461.89076,139.90254 465.52347,138.3125 C 469.15618,136.72246 472.86886,135.22461 476.61722,133.78125 C 480.36558,132.33789 484.16098,130.97455 488.02347,129.6875 C 491.88596,128.40045 495.79839,127.18361 499.77347,126.0625 C 503.74855,124.94139 507.78108,123.9143 511.86722,122.96875 C 515.95336,122.0232 520.10904,121.1666 524.30472,120.40625 C 528.5004,119.6459 532.75104,118.97178 537.05472,118.40625 C 541.3584,117.84072 545.70706,117.36108 550.11722,117 C 554.52738,116.63892 558.97711,116.397 563.49222,116.25 C 568.00733,116.103 572.59244,116.04829 577.21097,116.125 C 581.8295,116.20171 586.49055,116.40871 591.21097,116.71875 L 591.21097,158.625 C 591.21097,174.82852 588.24935,190.29786 583.05472,204.71875 C 580.1097,204.02206 577.20397,203.20455 574.21097,202.625 C 568.4595,201.51131 562.64399,200.62013 556.74222,199.9375 C 550.84045,199.25487 544.85266,198.7848 538.83597,198.53125 C 532.81928,198.2777 526.77593,198.2327 520.67972,198.40625 C 514.5835,198.5798 508.44507,198.96382 502.30472,199.5625 C 496.16437,200.16118 490.01632,200.97817 483.86722,202 C 477.71812,203.02183 471.58343,204.27574 465.46097,205.71875 C 459.33851,207.16176 453.24015,208.79404 447.17972,210.65625 C 441.11929,212.51846 435.08023,214.59556 429.11722,216.875 C 423.15421,219.15444 417.25992,221.64906 411.42972,224.34375 C 405.59952,227.03844 399.84172,229.92328 394.17972,233.03125 C 388.51772,236.13922 382.95063,239.44947 377.49222,242.96875 C 372.03381,246.48803 366.68041,250.22765 361.46097,254.15625 C 356.24153,258.08485 351.15604,262.22654 346.21097,266.5625 C 341.2659,270.89846 336.47128,275.41491 331.83597,280.15625 C 327.20066,284.89759 322.71989,289.85526 318.42972,295 z "
     style="opacity:0.98999999;fill:#ff1515;fill-opacity:1;fill-rule:nonzero;stroke:none;stroke-width:0.5;stroke-linecap:square;stroke-linejoin:round;stroke-miterlimit:3;stroke-dasharray:none;stroke-opacity:1" />
  <path
     id="path3278"
     d="M 318.42972,295 C 322.71989,289.85526 327.20066,284.89759 331.83597,280.15625 C 336.47128,275.41491 341.2659,270.89846 346.21097,266.5625 C 351.15604,262.22654 356.24153,258.08485 361.46097,254.15625 C 366.68041,250.22765 372.03381,246.48803 377.49222,242.96875 C 382.95063,239.44947 388.51772,236.13922 394.17972,233.03125 C 399.84172,229.92328 405.59952,227.03844 411.42972,224.34375 C 417.25992,221.64906 423.15421,219.15444 429.11722,216.875 C 435.08023,214.59556 441.11929,212.51846 447.17972,210.65625 C 453.24015,208.79404 459.33851,207.16176 465.46097,205.71875 C 471.58343,204.27574 477.71812,203.02183 483.86722,202 C 490.01632,200.97817 496.16437,200.16118 502.30472,199.5625 C 508.44507,198.96382 514.5835,198.5798 520.67972,198.40625 C 526.77593,198.2327 532.81928,198.2777 538.83597,198.53125 C 544.85266,198.7848 550.84045,199.25487 556.74222,199.9375 C 562.64399,200.62013 568.4595,201.51131 574.21097,202.625 C 577.20397,203.20455 580.1097,204.02206 583.05472,204.71875 C 564.11416,257.29996 513.88572,295 454.80472,295 L 318.42972,295 z "
     style="opacity:0.98999999;fill:#fcf300;fill-opacity:1;fill-rule:nonzero;stroke:none;stroke-width:0.5;stroke-linecap:square;stroke-linejoin:round;stroke-miterlimit:3;stroke-dasharray:none;stroke-opacity:1" />
  <path
     id="path3280"
     d="M 591.21097,22.21875 L 591.21097,116.71875 C 586.49055,116.40871 581.8295,116.20171 577.21097,116.125 C 572.59244,116.04829 568.00733,116.103 563.49222,116.25 C 558.97711,116.397 554.52738,116.63892 550.11722,117 C 545.70706,117.36108 541.3584,117.84072 537.05472,118.40625 C 532.75104,118.97178 528.5004,119.6459 524.30472,120.40625 C 520.10904,121.1666 515.95336,122.0232 511.86722,122.96875 C 507.78108,123.9143 503.74855,124.94139 499.77347,126.0625 C 495.79839,127.18361 491.88596,128.40045 488.02347,129.6875 C 484.16098,130.97455 480.36558,132.33789 476.61722,133.78125 C 472.86886,135.22461 469.15618,136.72246 465.52347,138.3125 C 461.89076,139.90254 458.32025,141.58541 454.80472,143.3125 C 451.28919,145.03959 447.82655,146.83298 444.42972,148.6875 C 437.63607,152.39653 431.08312,156.33904 424.77347,160.5 C 418.46382,164.66096 412.39938,169.02664 406.58597,173.5625 C 400.77256,178.09836 395.20341,182.79127 389.89847,187.625 C 384.59353,192.45873 379.55771,197.44542 374.77347,202.5 C 369.98923,207.55458 365.46228,212.6766 361.21097,217.875 C 356.95966,223.0734 352.97962,228.32856 349.27347,233.59375 C 345.56732,238.85894 342.14097,244.15129 338.99222,249.40625 C 335.84347,254.66121 332.9776,259.89481 330.39847,265.0625 C 327.81934,270.23019 325.52074,275.34034 323.52347,280.34375 C 321.5262,285.34716 319.83291,290.23791 318.42972,295 C 318.42972,144.43071 440.64166,22.21875 591.21097,22.21875 z "
     style="opacity:0.98999999;fill:#c20029;fill-opacity:1;fill-rule:nonzero;stroke:none;stroke-width:0.5;stroke-linecap:square;stroke-linejoin:round;stroke-miterlimit:3;stroke-dasharray:none;stroke-opacity:1" />
</svg>
